<svg width="121" height="120" viewBox="0 0 121 120" fill="none" xmlns="http://www.w3.org/2000/svg">
<circle cx="60.75" cy="60" r="60" fill="#F34E32"/>
<g clip-path="url(#clip0)">
<path d="M80.1781 67.5058C80.1781 70.0701 80.1781 72.4741 80.1781 74.8781C80.1781 78.2972 79.1519 79.2855 75.5599 79.2855C75.1323 79.2855 74.7046 79.2588 74.277 79.3122C72.5666 79.4457 71.1412 80.621 71.1127 82.197C71.0271 85.429 71.0842 88.6878 71.0842 92.0267C71.8254 92.0267 72.5095 92.0267 73.3363 92.0267C73.3363 89.1686 73.3363 86.3105 73.3363 83.4791C73.3363 81.5559 73.4788 81.3155 75.5314 81.4491C80.1496 81.7429 82.8864 78.778 82.4873 74.9315C82.3732 73.7295 82.4588 72.5275 82.4588 71.3255C82.4588 70.8447 82.4588 70.3639 82.4588 69.6427C83.3995 69.6427 84.2833 69.6427 85.167 69.6427C88.2173 69.5893 89.7283 67.212 88.3029 64.6477C87.7327 63.6327 87.134 62.6177 86.5354 61.6027C84.9389 58.9316 83.6846 56.2604 83.143 53.1352C81.461 43.5192 72.5381 36.6811 62.0472 36.5476C50.7011 36.3873 41.6071 42.8781 39.583 52.8948C38.0151 60.6945 39.8111 67.6928 46.0828 73.4624C51.5563 78.5108 50.416 76.374 50.53 83.4791C50.587 86.2838 50.53 89.0885 50.53 91.9733C51.2712 91.9733 51.9554 91.9733 52.7251 91.9733C52.7536 91.6795 52.8107 91.3856 52.8107 91.0918C52.8107 87.0851 52.8107 83.0785 52.8107 79.0718C52.8107 77.4691 52.2405 76.1336 51.0147 75.0117C49.5893 73.7028 48.1639 72.394 46.7955 71.0317C41.208 65.3957 40.1532 58.7179 42.2913 51.6394C44.3153 44.8815 49.3612 40.581 56.6877 39.1386C71.4262 36.227 81.2614 46.3773 81.347 56.4474C81.347 56.9549 81.575 57.4891 81.8316 57.9432C83.1715 60.2938 84.5398 62.6444 85.9082 64.9683C87.077 66.9983 86.7919 67.5058 84.3688 67.5058C83.0574 67.5058 81.7176 67.5058 80.1781 67.5058Z" fill="white"/>
<path d="M88.8729 60.1335C89.1865 60.7479 89.4716 61.2821 89.8137 62.0033C90.6689 61.6027 91.4957 61.3088 92.2369 60.8548C92.5219 60.6945 92.7215 60.2137 92.7215 59.8931C92.75 57.8364 92.7785 55.8063 92.693 53.7496C92.693 53.3756 92.2939 52.9482 91.9803 52.6544C91.7237 52.414 91.3246 52.2805 90.954 52.2003C88.3028 51.6127 87.305 49.7429 86.9059 47.4992C86.8204 46.9382 87.0484 46.1369 87.419 45.6828C89.1295 43.6527 89.0155 41.8898 87.0199 40.0734C85.9366 39.0851 85.395 37.3222 84.1692 36.8414C82.9718 36.3606 81.2614 37.0818 79.779 37.2154C79.3513 37.2421 78.8952 37.0818 78.4676 36.9482C78.2965 36.8948 78.1825 36.7345 78.0115 36.6544C75.8734 35.6928 74.7616 34.1436 74.9041 31.9265C74.9896 30.4841 74.1629 29.9499 72.7945 29.6294C71.0841 29.2287 69.4306 28.7212 67.7772 28.1603C67.0075 27.8931 66.4373 27.9466 65.8957 28.5609C65.468 29.0417 64.8979 29.4157 64.5273 29.8965C63.6435 31.0184 62.5032 31.232 61.0778 31.2855C59.2248 31.3656 57.7139 31.0184 56.6591 29.5225C55.5473 27.9733 54.179 27.7863 52.44 28.5342C51.1001 29.0951 49.6747 29.4691 48.2493 29.8164C47.3086 30.0568 46.6814 30.404 46.7669 31.419C46.7669 31.5793 46.6814 31.7663 46.6814 31.9532C46.9665 34.6244 45.085 35.9599 42.9754 37.0284C42.4337 37.2955 41.5785 37.2955 40.9798 37.0818C38.3286 36.2003 36.5326 36.8681 35.2498 39.2454C34.5656 40.5008 32.9406 41.5159 32.7981 42.7446C32.6556 43.8931 33.9669 45.1753 34.5941 46.404C34.7081 46.6444 34.9077 46.9382 34.8507 47.1252C34.1095 48.8881 34.252 51.212 31.5723 51.8264C29.3487 52.3339 28.4934 53.6427 28.8355 55.7796C29.0351 56.9549 28.9496 58.1836 28.8355 59.3856C28.75 60.374 29.0351 61.015 30.0899 61.2821C30.3179 61.3356 30.5175 61.5225 30.7455 61.5492C33.4823 62.0835 34.2805 64.1135 34.7366 66.3038C34.8507 66.8113 34.5656 67.5593 34.195 67.9866C32.399 70.0434 32.513 71.9132 34.6511 73.6761C34.7651 73.7563 34.8222 73.8898 34.9077 73.9967C37.844 77.6561 37.9295 77.6561 42.9469 76.1335C42.8329 75.5459 42.7473 74.9583 42.6048 74.1836C41.5215 74.3439 40.5237 74.5843 39.4974 74.6644C37.1883 74.8247 37.1313 72.581 35.8769 71.6194C35.2213 71.1118 35.1928 70.4975 35.7344 69.8831C37.3308 68.0134 37.2453 66.1169 36.4186 63.8464C35.6774 61.8164 34.5941 60.5609 32.4845 59.9733C31.4012 59.6795 31.2587 59.0117 31.1161 57.9967C30.7455 55.2988 31.5723 53.5626 34.5656 52.8147C35.934 52.4674 37.8155 47.0184 36.9317 46.0033C35.0217 43.7596 35.5063 41.9699 37.4734 40.0467C38.2431 39.2988 38.8133 38.7913 39.9536 39.1653C42.1772 39.9132 43.9161 39.192 45.8262 37.9633C47.7362 36.7078 48.9335 35.3456 48.848 33.1285C48.8195 32.1669 49.3896 31.8731 50.2734 31.4724C52.9816 30.2437 55.2908 30.2704 57.0012 32.8881C57.0297 32.9148 57.0582 32.9683 57.0867 32.995C57.942 33.7162 64.0427 33.6895 64.6698 32.808C66.3803 30.4307 68.4328 30.2437 71.0556 31.3656C72.1389 31.8197 72.8516 32.1669 72.7945 33.3689C72.7375 35.3456 73.5928 36.8414 75.5883 37.7229C75.6738 37.7496 75.7594 37.8297 75.8164 37.8831C77.5268 39.4324 79.4939 39.9399 81.7745 39.1386C82.7723 38.7913 83.3139 39.2187 84.0266 39.9132C86.0792 41.8898 86.7063 43.8397 84.5968 46.0835C84.5112 46.1903 84.4542 46.3239 84.3972 46.4307C83.9981 47.419 86.0792 52.601 87.1625 52.8948C90.0133 53.616 90.897 55.2454 90.4694 57.8898C90.2698 59.2521 90.4409 59.2788 88.8729 60.1335Z" fill="white"/>
<path d="M75.6169 61.6294C75.6169 57.7028 75.6169 53.803 75.6169 49.8764C75.6169 47.3389 74.3055 46.1369 71.5973 46.1102C65.1545 46.1102 58.6833 46.1102 52.2405 46.1102C49.5608 46.1102 48.2494 47.3389 48.2494 49.9032C48.2494 55.5926 48.2779 61.2821 48.2209 66.9716C48.2209 68.3606 48.677 69.4557 49.7318 70.4173C51.7274 72.207 53.5519 74.1302 55.6329 75.8397C56.4597 76.5075 57.6855 77.015 58.7688 77.0417C63.045 77.1753 67.3211 77.1219 71.5688 77.0951C74.3055 77.0951 75.5884 75.8931 75.5884 73.3556C75.6454 69.4557 75.6169 65.5559 75.6169 61.6294ZM50.5585 67.5058C50.5585 61.389 50.5585 55.4591 50.5585 49.5559C50.5585 48.5676 51.1572 48.2738 52.1265 48.2738C58.6833 48.2738 65.2401 48.3005 71.7969 48.2738C72.9657 48.2738 73.3933 48.808 73.3933 49.8497C73.3648 57.7295 73.3648 65.6093 73.3933 73.4624C73.3933 74.5309 72.9372 75.0117 71.7683 74.985C67.5777 74.9582 63.4156 74.985 59.2249 74.9583C58.9969 74.9583 58.7973 74.8514 58.5407 74.798C58.5407 73.4891 58.5692 72.2604 58.5407 71.005C58.5122 68.788 57.1724 67.5325 54.8347 67.4791C53.4378 67.5058 52.0695 67.5058 50.5585 67.5058ZM52.4116 69.7763C56.2031 69.2955 57.0013 70.0968 56.032 73.0885C54.8632 72.0467 53.6944 70.9516 52.4116 69.7763Z" fill="white"/>
<path d="M70.9985 53.5359C70.9985 52.8414 70.9985 52.2538 70.9985 51.5593C64.9549 51.5593 58.9682 51.5593 52.8961 51.5593C52.8961 52.227 52.8961 52.8147 52.8961 53.5359C58.8827 53.5359 64.8694 53.5359 70.9985 53.5359Z" fill="white"/>
<path d="M70.9985 58.8781C70.9985 58.1836 70.9985 57.5693 70.9985 56.9015C64.9264 56.9015 58.9397 56.9015 52.8961 56.9015C52.8961 57.5693 52.8961 58.1836 52.8961 58.8781C58.9112 58.8781 64.8979 58.8781 70.9985 58.8781Z" fill="white"/>
<path d="M70.9985 64.1936C70.9985 63.5526 70.9985 62.9382 70.9985 62.2437C64.9549 62.2437 58.9682 62.2437 52.8961 62.2437C52.8961 62.8848 52.8961 63.4724 52.8961 64.1936C58.8542 64.1936 64.8409 64.1936 70.9985 64.1936Z" fill="white"/>
<path d="M71.0273 69.5359C71.0273 68.8681 71.0273 68.2537 71.0273 67.5859C67.6349 67.5859 64.2995 67.5859 60.9071 67.5859C60.9071 68.227 60.9071 68.8414 60.9071 69.5359C64.1855 69.5359 67.5209 69.5359 71.0273 69.5359Z" fill="white"/>
</g>
<defs>
<clipPath id="clip0">
<rect width="64" height="64" fill="white" transform="matrix(-1 0 0 1 92.75 28)"/>
</clipPath>
</defs>
</svg>
