<svg width="120" height="120" viewBox="0 0 120 120" fill="none" xmlns="http://www.w3.org/2000/svg">
<circle cx="60" cy="60" r="60" fill="#F7941D"/>
<g clip-path="url(#clip0)">
<path d="M34.3759 42.72C34.3759 38.3733 34.3759 34.3467 34.3759 30.32C34.3759 28.0267 34.4026 28 36.6969 28C52.3034 28 67.8832 28 83.4897 28C85.4906 28 85.5973 28.1067 85.5973 30.1333C85.5973 36.2667 85.5973 42.4 85.5973 48.5333C85.5973 49.0933 85.5973 49.68 85.5973 50.4267C86.6377 50.4267 87.6248 50.4 88.5852 50.4267C90.7194 50.48 92 51.7333 92 53.84C92.0266 57.9733 92.0266 62.1067 92 66.24C91.9733 68.2933 90.7194 69.5467 88.6652 69.6267C87.7048 69.6533 86.7178 69.6267 85.5973 69.6267C85.5973 72.2667 85.3305 74.8 85.6506 77.28C86.1842 81.3333 84.9303 84.3467 81.7023 86.8267C80.0216 88.1067 78.6877 89.84 77.1138 91.28C76.6869 91.68 75.9666 92 75.3797 92C62.2809 92.0267 49.1554 92.0267 36.0566 92.0533C34.7761 92.0533 34.3493 91.5467 34.3493 90.2933C34.3759 82.9067 34.3759 75.5467 34.3493 68.16C34.3493 67.2 34.2159 66.2133 33.9491 65.28C32.0816 58.5067 30.1608 51.76 28.2134 45.04C27.8132 43.6267 27.9466 42.4 29.0671 41.3867C30.6144 39.9467 32.6419 40.3467 34.3759 42.72ZM75.9933 69.6C75.3263 69.6 74.8461 69.6 74.3393 69.6C71.8849 69.5733 70.6577 68.3733 70.6577 65.92C70.6311 62 70.6311 58.1067 70.6577 54.1867C70.6577 51.5733 71.8582 50.4 74.526 50.4C77.0604 50.4 79.5948 50.4 82.1292 50.4C82.556 50.4 82.9829 50.4 83.383 50.4C83.383 43.5467 83.383 36.9067 83.383 30.24C67.7232 30.24 52.17 30.24 36.5102 30.24C36.5102 30.9067 36.5102 31.4933 36.5102 32.0533C36.5102 37.84 36.4835 43.6 36.5368 49.3867C36.5368 50.2933 36.6702 51.2533 36.9103 52.1333C39.6048 61.7067 42.3526 71.2533 45.0471 80.8267C45.8741 83.7333 47.2613 86.6133 45.794 89.8133C55.6115 89.8133 65.1888 89.8133 74.8995 89.8133C74.8995 87.5733 74.8995 85.4133 74.8995 83.2533C74.8995 81.5467 75.0862 81.36 76.8203 81.36C78.9812 81.36 81.1421 81.36 83.3564 81.36C83.3564 77.3867 83.3564 73.5467 83.3564 69.4133C82.7961 69.8133 82.396 70.0533 82.1025 70.3733C80.7686 71.68 79.4881 73.04 78.1275 74.2933C77.754 74.6133 77.0337 74.9333 76.6869 74.7733C76.3134 74.6133 76.0733 73.8667 76.02 73.36C75.9399 72.16 75.9933 70.96 75.9933 69.6ZM78.1809 70.9333C78.2876 71.0667 78.3943 71.2 78.501 71.3333C80.5285 67.0133 84.2367 67.2533 87.9183 67.4667C87.9983 67.4667 88.105 67.4667 88.185 67.4667C89.4656 67.6 89.9191 66.96 89.8924 65.7333C89.8391 61.92 89.8924 58.1067 89.8657 54.2933C89.8657 52.7733 89.6256 52.5333 88.0516 52.5333C83.5698 52.5333 79.0879 52.5333 74.606 52.5333C73.0054 52.5333 72.792 52.7467 72.792 54.4C72.792 58 72.792 61.6 72.792 65.1733C72.792 67.3867 72.8453 67.44 75.0062 67.44C78.1542 67.44 78.1809 67.2 78.1275 70.4C78.1275 70.5867 78.1542 70.7467 78.1809 70.9333ZM31.3613 48.1333C31.4947 48.6933 31.5748 49.12 31.7082 49.5467C35.1496 61.5733 38.5644 73.6267 42.0325 85.6267C42.3259 86.64 43.0462 87.5467 43.5798 88.5067C43.7932 88.4267 44.0066 88.3733 44.2467 88.2933C44.1667 87.1733 44.2734 86.0267 43.9799 84.96C40.7253 73.3333 37.3905 61.7333 34.0825 50.1333C33.8424 49.3067 33.5756 48.48 33.2821 47.5733C32.6152 47.7867 32.0816 47.9467 31.3613 48.1333ZM36.5635 89.76C38.4576 89.76 40.165 89.76 41.5789 89.76C40.9654 88.3467 40.2184 86.96 39.7649 85.4933C38.7778 82.32 37.9241 79.12 37.017 75.92C36.937 75.6267 36.8036 75.36 36.5635 74.8C36.5635 79.9733 36.5635 84.8267 36.5635 89.76ZM81.729 83.5467C80.1017 83.5467 78.6344 83.5467 77.1938 83.5467C77.1938 85.0933 77.1938 86.56 77.1938 88.08C78.7144 86.56 80.155 85.12 81.729 83.5467ZM32.7753 45.4933C32.5085 44.6667 32.4018 43.9467 32.0816 43.36C31.8949 43.04 31.2013 42.6933 30.9612 42.8C30.5877 42.96 30.1608 43.5467 30.1875 43.9467C30.2142 44.64 30.5343 45.3333 30.7478 46.08C31.4947 45.8667 32.0816 45.68 32.7753 45.4933Z" fill="white"/>
<path d="M58.9195 55.7067C59.6932 55.7067 60.2534 55.7067 61.0537 55.7067C61.0537 55.2267 61.0537 54.7467 61.0537 54.2934C61.0537 49.68 61.0537 45.04 61.0537 40.4267C61.0537 38.88 61.2672 38.6934 62.8412 38.6667C63.6948 38.6667 64.5219 38.6667 65.3755 38.6667C67.323 38.6667 67.4564 38.7734 67.4564 40.6934C67.4564 45.3067 67.4564 49.9467 67.4564 54.56C67.4564 55.2534 67.3764 55.9467 68.4702 55.7867C68.4702 56.48 68.4702 57.0934 68.4702 57.7867C59.6131 57.7867 50.8095 57.7867 41.9258 57.7867C41.9258 57.12 41.9258 56.5334 41.9258 55.8134C42.566 55.7867 43.2063 55.7334 44.0066 55.68C44.0066 53.2 44.0066 50.7734 44.0066 48.3467C44.0066 47.0667 44.0333 45.76 44.0066 44.48C43.98 43.4134 44.4068 42.9067 45.5006 42.9334C46.6211 42.96 47.7149 42.96 48.8353 42.9334C49.9825 42.88 50.436 43.3867 50.436 44.5067C50.4093 47.8934 50.436 51.2534 50.436 54.64C50.436 54.9334 50.436 55.2534 50.436 55.6534C51.1563 55.6534 51.7966 55.6534 52.5702 55.6534C52.5702 54.2134 52.5702 52.8 52.5702 51.3867C52.5702 48.3734 52.5969 45.3334 52.5702 42.32C52.5702 41.2534 52.9971 40.7734 54.0908 40.8C55.2113 40.8267 56.3051 40.8267 57.4256 40.8C58.5727 40.7734 58.9996 41.28 58.9996 42.4C58.9729 46.32 58.9996 50.2134 58.9996 54.1334C58.9195 54.6134 58.9195 55.0934 58.9195 55.7067ZM63.2947 40.8267C63.2947 45.8667 63.2947 50.7734 63.2947 55.6267C64.015 55.6267 64.6019 55.6267 65.2155 55.6267C65.2155 50.64 65.2155 45.7334 65.2155 40.8267C64.5485 40.8267 63.9616 40.8267 63.2947 40.8267ZM54.7044 55.6267C55.4514 55.6267 56.0917 55.6267 56.6786 55.6267C56.6786 51.3334 56.6786 47.1734 56.6786 43.0134C55.9583 43.0134 55.3714 43.0134 54.7044 43.0134C54.7044 47.2534 54.7044 51.3867 54.7044 55.6267ZM48.1684 55.68C48.1684 52.08 48.1684 48.6134 48.1684 45.1467C47.4748 45.1467 46.8612 45.1467 46.1942 45.1467C46.1942 48.6934 46.1942 52.16 46.1942 55.68C46.8612 55.68 47.4481 55.68 48.1684 55.68Z" fill="white"/>
<path d="M65.5356 81.8134C60.0133 85.3867 54.7845 85.3867 50.516 81.9467C46.5677 78.7734 45.1004 73.4667 46.8878 68.7467C48.6486 64.0267 53.1838 60.9867 58.2792 61.0934C63.9349 61.2267 67.5631 64.5867 69.724 71.76C70.6311 71.76 71.5381 71.76 72.4718 71.76C73.3789 71.7334 73.8857 72.1334 73.8857 73.0934C73.8857 77.3334 72.3918 80.9867 69.4839 84.0534C68.817 84.7467 68.1767 84.6934 67.5364 84C66.8695 83.2534 66.2025 82.5334 65.5356 81.8134ZM54.1975 64C55.5848 66.48 56.892 68.88 58.2526 71.2534C58.386 71.4667 58.7328 71.7067 58.9729 71.7067C61.7474 71.7334 64.5218 71.7334 67.323 71.7334C66.7094 65.4667 60.04 61.52 54.1975 64ZM52.3301 65.0667C47.7682 68.1867 46.8345 75.28 50.3826 78.56C52.3835 76.56 54.3843 74.56 56.4652 72.5067C55.1313 70.1067 53.744 67.6267 52.3301 65.0667ZM57.9058 74.6934C56.0116 76.5867 54.0908 78.5067 52.17 80.4267C55.4247 83.0934 60.6002 83.0667 63.6148 80.32C61.6673 78.4267 59.7198 76.5067 57.9058 74.6934ZM71.6982 73.9734C67.9633 73.9734 64.3618 73.9734 60.8136 73.9734C63.4014 76.56 65.9891 79.12 68.6035 81.7334C70.471 79.5734 71.4581 76.9867 71.6982 73.9734Z" fill="white"/>
<path d="M75.9932 48.2133C75.2462 48.2133 74.6593 48.2133 73.8856 48.2133C73.8856 45.0666 73.8856 41.9466 73.8856 38.7466C73.112 38.7466 72.5251 38.7466 71.7514 38.7466C71.7514 41.8666 71.7514 45.0133 71.7514 48.2133C71.0044 48.2133 70.3909 48.2133 69.5905 48.2133C69.5905 46.7733 69.5905 45.3333 69.5905 43.8933C69.5905 41.9733 69.6172 40.08 69.5905 38.16C69.5638 37.04 69.9907 36.5066 71.1645 36.56C72.3117 36.6133 73.4855 36.4533 74.6326 36.6133C75.1395 36.6933 75.9398 37.3066 75.9398 37.68C76.0199 41.1466 75.9932 44.64 75.9932 48.2133Z" fill="white"/>
<path d="M52.5967 33.3867C57.5054 33.3867 62.3607 33.3867 67.3495 33.3867C67.3495 34.0267 67.3495 34.64 67.3495 35.3867C62.4675 35.3867 57.5854 35.3867 52.5967 35.3867C52.5967 34.7467 52.5967 34.16 52.5967 33.3867Z" fill="white"/>
<path d="M79.0615 65.8667C78.3945 65.4667 77.861 65.1467 77.2207 64.7734C79.3549 61.2 81.4625 57.7334 83.5967 54.1334C84.2103 54.48 84.7705 54.8267 85.4375 55.2C83.3032 58.7734 81.2224 62.2667 79.0615 65.8667Z" fill="white"/>
<path d="M80.2084 54.7733C80.2084 55.44 80.2084 56.0266 80.2084 56.72C79.5414 56.72 78.9011 56.72 78.2075 56.72C78.2075 56.08 78.2075 55.4933 78.2075 54.7733C78.7944 54.7733 79.4347 54.7733 80.2084 54.7733Z" fill="white"/>
<path d="M84.4504 65.28C83.7835 65.28 83.1966 65.28 82.5029 65.28C82.5029 64.64 82.5029 64.0266 82.5029 63.3066C83.1165 63.3066 83.7568 63.3066 84.4504 63.3066C84.4504 63.92 84.4504 64.5066 84.4504 65.28Z" fill="white"/>
</g>
<defs>
<clipPath id="clip0">
<rect width="64" height="64" fill="white" transform="translate(28 28)"/>
</clipPath>
</defs>
</svg>
