<svg width="65" height="65" viewBox="0 0 65 65" fill="none" xmlns="http://www.w3.org/2000/svg">
<g clip-path="url(#clip0)">
<path d="M23.2075 48.2659V48.6999C23.2075 49.0666 23.5059 49.3637 23.874 49.3637H41.1266C41.4947 49.3637 41.7931 49.0666 41.7931 48.6999V48.2659C41.7931 45.9481 40.5997 43.6934 38.4327 41.9172C36.7825 40.5647 34.6756 39.8197 32.5002 39.8197C30.3248 39.8197 28.2179 40.5646 26.5679 41.9171C24.4009 43.6932 23.2075 45.9479 23.2075 48.2659ZM27.4149 42.9422C28.827 41.7847 30.6331 41.1473 32.5002 41.1473C34.3674 41.1473 36.1734 41.7848 37.5856 42.9423C39.3917 44.4228 40.3801 46.1795 40.4555 48.0362H24.5451C24.6206 46.1793 25.6089 44.4225 27.4149 42.9422Z" fill="white"/>
<path d="M20.6195 14.2899V16.8903C20.6195 19.8699 21.4262 22.8132 22.9522 25.4017C23.1386 25.7178 23.547 25.8236 23.8644 25.638C24.1819 25.4524 24.2881 25.0457 24.1017 24.7294C22.6957 22.3446 21.9525 19.6338 21.9525 16.8903V14.2915L43.0479 14.2916V16.8904C43.0479 20.9984 41.4261 24.8933 38.4814 27.8574C38.4814 27.8575 38.4813 27.8575 38.4813 27.8576C37.8838 28.4591 37.2313 29.0196 36.5416 29.5238C35.5968 30.2145 35.0328 31.3179 35.0328 32.4757C35.0328 33.6336 35.595 34.7356 36.5365 35.4237C39.1933 37.3649 41.1534 40.0018 42.205 43.0493C42.3 43.3246 42.5585 43.4975 42.8353 43.4975C42.9071 43.4975 42.9802 43.4858 43.0519 43.4613C43.4 43.3422 43.5852 42.9645 43.4656 42.6179C42.3253 39.3131 40.2019 36.4552 37.325 34.3532C36.7243 33.9143 36.3657 33.2124 36.3657 32.4756C36.3657 31.7389 36.7263 31.0356 37.3302 30.594C38.0762 30.0488 38.7822 29.4422 39.4288 28.7913C39.4288 28.7913 39.4289 28.7912 39.4288 28.7914C42.6222 25.5769 44.3808 21.3504 44.3808 16.8904V14.2899C45.5756 14.2563 46.5375 13.2667 46.5375 12.0543C46.5375 10.8207 45.542 9.81714 44.3183 9.81714H20.6821C19.4536 9.81714 18.4627 10.8197 18.4629 12.0545C18.463 13.2669 19.4249 14.2563 20.6195 14.2899ZM20.6821 11.1447H44.3183C44.807 11.1447 45.2045 11.5528 45.2045 12.0542C45.2045 12.5558 44.807 12.9638 44.3183 12.9638H20.6821C20.1934 12.9638 19.7959 12.5558 19.7958 12.0544C19.7959 11.5437 20.2005 11.1447 20.6821 11.1447Z" fill="white"/>
<path d="M44.3807 50.6599C44.3807 47.9244 44.4189 47.1716 44.2189 45.7489C44.1679 45.3859 43.8317 45.1333 43.4665 45.1836C43.102 45.2344 42.8478 45.5699 42.8988 45.933C43.0816 47.2335 43.0477 47.8767 43.0477 50.6583H32.5L21.9524 50.6583C21.9524 47.7815 21.7709 45.4209 23.1449 42.1305C23.1451 42.13 23.1454 42.1295 23.1456 42.1289C24.2548 39.4734 26.0937 37.1548 28.4633 35.4235C29.4051 34.7354 29.9675 33.6332 29.9675 32.4753C29.9675 31.3175 29.4036 30.2141 28.4591 29.5238C27.5006 28.823 26.6213 28.0198 25.8454 27.1363C25.6029 26.8604 25.182 26.8323 24.9049 27.0736C24.6278 27.315 24.5996 27.7343 24.842 28.0103C25.6818 28.9668 26.6335 29.836 27.6704 30.5939C28.2741 31.0352 28.6345 31.7385 28.6345 32.4752C28.6345 33.2119 28.2757 33.914 27.6749 34.353C25.1093 36.2274 23.1175 38.7398 21.9148 41.6189C21.9147 41.6195 21.9144 41.62 21.9141 41.6206C20.4397 45.1513 20.6193 47.6676 20.6193 50.6598C20.0479 50.6757 19.5136 50.9074 19.1088 51.3176C18.6923 51.7398 18.4628 52.3001 18.4629 52.8956C18.463 54.1292 19.4586 55.1327 20.6821 55.1327H44.3183C45.542 55.1327 46.5376 54.1291 46.5376 52.8956C46.5375 51.6832 45.5756 50.6935 44.3807 50.6599ZM44.3183 53.8051H20.6821C20.1934 53.8051 19.7959 53.3972 19.7958 52.8957C19.7958 52.3861 20.1993 51.986 20.6821 51.986H32.5H44.3183C44.807 51.986 45.2046 52.3941 45.2046 52.8956C45.2045 53.3971 44.807 53.8051 44.3183 53.8051Z" fill="white"/>
<path d="M33.1665 30.395C33.1665 30.0283 32.8681 29.7312 32.5 29.7312C32.1319 29.7312 31.8335 30.0283 31.8335 30.395V31.2801C31.8335 31.6468 32.1319 31.9439 32.5 31.9439C32.8681 31.9439 33.1665 31.6468 33.1665 31.2801V30.395Z" fill="white"/>
<path d="M32.5 38.8474C32.8681 38.8474 33.1665 38.5503 33.1665 38.1836V37.2986C33.1665 36.9319 32.8681 36.6348 32.5 36.6348C32.1319 36.6348 31.8335 36.9319 31.8335 37.2986V38.1836C31.8335 38.5503 32.1319 38.8474 32.5 38.8474Z" fill="white"/>
<path d="M32.5 33.183C32.1319 33.183 31.8335 33.4801 31.8335 33.8468V34.7319C31.8335 35.0985 32.1319 35.3957 32.5 35.3957C32.8681 35.3957 33.1665 35.0985 33.1665 34.7319V33.8468C33.1665 33.4801 32.8681 33.183 32.5 33.183Z" fill="white"/>
<path d="M41.6354 18.9953C41.6958 18.5945 41.3838 18.233 40.9763 18.233H24.0241C23.6171 18.233 23.3044 18.594 23.3649 18.9953C23.8138 21.9725 25.1892 24.6997 27.3425 26.8825C28.6941 28.2525 30.5741 29.0383 32.5003 29.0383C34.4263 29.0383 36.3063 28.2526 37.658 26.8826C39.8112 24.6999 41.1866 21.9726 41.6354 18.9953ZM32.5002 27.7108C30.9293 27.7108 29.3959 27.0698 28.2932 25.9521C26.524 24.1586 25.3334 21.9619 24.8216 19.5606H40.1786C39.6669 21.9621 38.4764 24.1588 36.7071 25.9521C35.6044 27.0698 34.071 27.7108 32.5002 27.7108Z" fill="white"/>
</g>
<defs>
<clipPath id="clip0">
<rect width="45.5" height="45.3156" fill="white" transform="translate(9.75 9.81714)"/>
</clipPath>
</defs>
</svg>
