<svg width="65" height="65" viewBox="0 0 65 65" fill="none" xmlns="http://www.w3.org/2000/svg">
<path d="M21.8359 22.4684C22.2286 22.4684 22.5469 22.1514 22.5469 21.7603C22.5469 21.3693 22.2286 21.0523 21.8359 21.0523C21.4433 21.0523 21.125 21.3693 21.125 21.7603C21.125 22.1514 21.4433 22.4684 21.8359 22.4684Z" fill="white"/>
<path d="M24.6797 22.4684C25.0723 22.4684 25.3906 22.1514 25.3906 21.7603C25.3906 21.3693 25.0723 21.0523 24.6797 21.0523C24.287 21.0523 23.9688 21.3693 23.9688 21.7603C23.9688 22.1514 24.287 22.4684 24.6797 22.4684Z" fill="white"/>
<path d="M18.2812 22.3976V23.1764C18.2821 23.8363 18.4152 24.4893 18.6728 25.0973C18.9304 25.7052 19.3073 26.2558 19.7813 26.7167H19.7031C18.7604 26.7167 17.8562 27.0897 17.1896 27.7536C16.5229 28.4176 16.1484 29.3181 16.1484 30.257V37.3376C16.1484 37.5253 16.2233 37.7054 16.3567 37.8382C16.49 37.971 16.6708 38.0456 16.8594 38.0456C17.0479 38.0456 17.2288 37.971 17.3621 37.8382C17.4954 37.7054 17.5703 37.5253 17.5703 37.3376V30.257C17.5703 29.6936 17.795 29.1533 18.195 28.755C18.595 28.3566 19.1375 28.1328 19.7031 28.1328H20.7198L22.5469 31.1633V37.3376C22.5469 37.5253 22.6218 37.7054 22.7551 37.8382C22.8884 37.971 23.0693 38.0456 23.2578 38.0456C23.4464 38.0456 23.6272 37.971 23.7605 37.8382C23.8938 37.7054 23.9688 37.5253 23.9688 37.3376V31.1633L25.7959 28.1328H26.8125C27.3782 28.1328 27.9206 28.3566 28.3206 28.755C28.7206 29.1533 28.9453 29.6936 28.9453 30.257V37.3376C28.9453 37.5253 29.0202 37.7054 29.1535 37.8382C29.2869 37.971 29.4677 38.0456 29.6562 38.0456C29.8448 38.0456 30.0256 37.971 30.159 37.8382C30.2923 37.7054 30.3672 37.5253 30.3672 37.3376V30.257C30.3672 29.3181 29.9927 28.4176 29.326 27.7536C28.6594 27.0897 27.7553 26.7167 26.8125 26.7167H26.7343C27.2084 26.2558 27.5852 25.7052 27.8428 25.0973C28.1004 24.4893 28.2335 23.8363 28.2344 23.1764V22.3976C29.0373 22.2343 29.7589 21.7998 30.2771 21.1676C30.7953 20.5354 31.0783 19.7442 31.0781 18.9281V17.512C31.0781 16.573 30.7036 15.6726 30.037 15.0086C29.3703 14.3447 28.4662 13.9717 27.5234 13.9717H16.1484C15.9599 13.9717 15.7791 14.0463 15.6457 14.1791C15.5124 14.3119 15.4375 14.492 15.4375 14.6798V18.9281C15.4373 19.7442 15.7203 20.5354 16.2385 21.1676C16.7567 21.7998 17.4783 22.2343 18.2812 22.3976ZM23.2578 29.5914L22.3834 28.1328H24.1323L23.2578 29.5914ZM26.8125 23.1764C26.8125 24.1154 26.438 25.0159 25.7714 25.6798C25.1047 26.3437 24.2006 26.7167 23.2578 26.7167C22.3151 26.7167 21.4109 26.3437 20.7443 25.6798C20.0776 25.0159 19.7031 24.1154 19.7031 23.1764V18.7298C20.9469 19.3276 22.3104 19.6375 23.6915 19.6362H26.8125V23.1764ZM16.8594 15.3878H27.5234C28.0891 15.3878 28.6316 15.6116 29.0316 16.01C29.4315 16.4083 29.6562 16.9486 29.6562 17.512V18.9281C29.655 19.3663 29.5177 19.7935 29.2631 20.151C29.0086 20.5084 28.6492 20.7787 28.2344 20.9248V18.9281C28.2344 18.7403 28.1595 18.5602 28.0261 18.4274C27.8928 18.2946 27.712 18.22 27.5234 18.22H23.6915C22.1581 18.2234 20.6584 17.7723 19.3832 16.9243C19.2783 16.8567 19.1573 16.8178 19.0325 16.8116C18.9077 16.8054 18.7834 16.832 18.6723 16.8889C18.5561 16.9472 18.4582 17.0361 18.3893 17.146C18.3203 17.2558 18.283 17.3824 18.2812 17.512V20.9248C17.8664 20.7787 17.507 20.5084 17.2525 20.151C16.9979 19.7935 16.8606 19.3663 16.8594 18.9281V15.3878Z" fill="white"/>
<path d="M18.9922 31.6731V37.3376C18.9922 37.5254 19.0671 37.7055 19.2004 37.8383C19.3337 37.971 19.5146 38.0456 19.7031 38.0456C19.8917 38.0456 20.0725 37.971 20.2058 37.8383C20.3392 37.7055 20.4141 37.5254 20.4141 37.3376V31.6731C20.4141 31.4854 20.3392 31.3053 20.2058 31.1725C20.0725 31.0397 19.8917 30.9651 19.7031 30.9651C19.5146 30.9651 19.3337 31.0397 19.2004 31.1725C19.0671 31.3053 18.9922 31.4854 18.9922 31.6731Z" fill="white"/>
<path d="M26.1016 31.6731V37.3376C26.1016 37.5254 26.1765 37.7055 26.3098 37.8383C26.4431 37.971 26.6239 38.0456 26.8125 38.0456C27.0011 38.0456 27.1819 37.971 27.3152 37.8383C27.4485 37.7055 27.5234 37.5254 27.5234 37.3376V31.6731C27.5234 31.4854 27.4485 31.3053 27.3152 31.1725C27.1819 31.0397 27.0011 30.9651 26.8125 30.9651C26.6239 30.9651 26.4431 31.0397 26.3098 31.1725C26.1765 31.3053 26.1016 31.4854 26.1016 31.6731Z" fill="white"/>
<path d="M23.763 23.6792C23.6969 23.7455 23.6183 23.7982 23.5316 23.8342C23.445 23.8701 23.3521 23.8886 23.2582 23.8886C23.1644 23.8886 23.0714 23.8701 22.9848 23.8342C22.8982 23.7982 22.8195 23.7455 22.7534 23.6792C22.6174 23.5632 22.4425 23.5026 22.2636 23.5094C22.0846 23.5163 21.9149 23.5902 21.7883 23.7163C21.6617 23.8424 21.5875 24.0114 21.5806 24.1896C21.5737 24.3678 21.6346 24.5421 21.751 24.6775C22.1509 25.0753 22.693 25.2988 23.2582 25.2988C23.8234 25.2988 24.3655 25.0753 24.7654 24.6775C24.8819 24.5421 24.9427 24.3678 24.9358 24.1896C24.9289 24.0114 24.8547 23.8424 24.7281 23.7163C24.6015 23.5902 24.4318 23.5163 24.2529 23.5094C24.0739 23.5026 23.899 23.5632 23.763 23.6792Z" fill="white"/>
<path d="M46.0078 18.2201H47.4297C47.6182 18.2201 47.7991 18.1455 47.9324 18.0127C48.0657 17.8799 48.1406 17.6998 48.1406 17.512C48.1406 17.3242 48.0657 17.1441 47.9324 17.0113C47.7991 16.8786 47.6182 16.804 47.4297 16.804H46.0078C45.8193 16.804 45.6384 16.8786 45.5051 17.0113C45.3718 17.1441 45.2969 17.3242 45.2969 17.512C45.2969 17.6998 45.3718 17.8799 45.5051 18.0127C45.6384 18.1455 45.8193 18.2201 46.0078 18.2201Z" fill="white"/>
<path d="M46.0078 21.0523H47.4297C47.6182 21.0523 47.7991 20.9777 47.9324 20.8449C48.0657 20.7121 48.1406 20.532 48.1406 20.3442C48.1406 20.1564 48.0657 19.9763 47.9324 19.8436C47.7991 19.7108 47.6182 19.6362 47.4297 19.6362H46.0078C45.8193 19.6362 45.6384 19.7108 45.5051 19.8436C45.3718 19.9763 45.2969 20.1564 45.2969 20.3442C45.2969 20.532 45.3718 20.7121 45.5051 20.8449C45.6384 20.9777 45.8193 21.0523 46.0078 21.0523Z" fill="white"/>
<path d="M40.3203 16.804H38.8984C38.7099 16.804 38.5291 16.8786 38.3957 17.0113C38.2624 17.1441 38.1875 17.3242 38.1875 17.512C38.1875 17.6998 38.2624 17.8799 38.3957 18.0127C38.5291 18.1455 38.7099 18.2201 38.8984 18.2201H40.3203C40.5089 18.2201 40.6897 18.1455 40.823 18.0127C40.9563 17.8799 41.0312 17.6998 41.0312 17.512C41.0312 17.3242 40.9563 17.1441 40.823 17.0113C40.6897 16.8786 40.5089 16.804 40.3203 16.804Z" fill="white"/>
<path d="M40.3203 19.6362H38.8984C38.7099 19.6362 38.5291 19.7108 38.3957 19.8436C38.2624 19.9763 38.1875 20.1564 38.1875 20.3442C38.1875 20.532 38.2624 20.7121 38.3957 20.8449C38.5291 20.9777 38.7099 21.0523 38.8984 21.0523H40.3203C40.5089 21.0523 40.6897 20.9777 40.823 20.8449C40.9563 20.7121 41.0312 20.532 41.0312 20.3442C41.0312 20.1564 40.9563 19.9763 40.823 19.8436C40.6897 19.7108 40.5089 19.6362 40.3203 19.6362Z" fill="white"/>
<path d="M43.1641 25.3006C43.3526 25.3006 43.5334 25.226 43.6668 25.0932C43.8001 24.9604 43.875 24.7803 43.875 24.5926C43.875 24.4048 43.9499 24.2247 44.0832 24.0919C44.2166 23.9591 44.3974 23.8845 44.5859 23.8845H50.2734C50.462 23.8845 50.6428 23.8099 50.7761 23.6771C50.9095 23.5443 50.9844 23.3642 50.9844 23.1764V14.6798C50.9844 14.492 50.9095 14.3119 50.7761 14.1791C50.6428 14.0463 50.462 13.9717 50.2734 13.9717H46.0078C45.456 13.9717 44.9117 14.0997 44.4181 14.3455C43.9245 14.5913 43.4952 14.9481 43.1641 15.3878C42.833 14.9481 42.4036 14.5913 41.91 14.3455C41.4164 14.0997 40.8722 13.9717 40.3203 13.9717H36.0547C35.8661 13.9717 35.6853 14.0463 35.552 14.1791C35.4187 14.3119 35.3438 14.492 35.3438 14.6798V23.1764C35.3438 23.3642 35.4187 23.5443 35.552 23.6771C35.6853 23.8099 35.8661 23.8845 36.0547 23.8845H40.3203C40.5089 23.8845 40.6897 23.8099 40.823 23.6771C40.9563 23.5443 41.0312 23.3642 41.0312 23.1764C41.0312 22.9887 40.9563 22.8086 40.823 22.6758C40.6897 22.543 40.5089 22.4684 40.3203 22.4684H36.7656V15.3878H40.3203C40.886 15.3878 41.4285 15.6116 41.8284 16.01C42.2284 16.4083 42.4531 16.9486 42.4531 17.512V24.5926C42.4531 24.7803 42.528 24.9604 42.6614 25.0932C42.7947 25.226 42.9755 25.3006 43.1641 25.3006ZM46.0078 15.3878H49.5625V22.4684H44.5859C44.3438 22.468 44.1034 22.5087 43.875 22.5888V17.512C43.875 16.9486 44.0997 16.4083 44.4997 16.01C44.8997 15.6116 45.4422 15.3878 46.0078 15.3878Z" fill="white"/>
<path d="M53.1172 20.3442C53.3058 20.3442 53.4866 20.2696 53.6199 20.1368C53.7532 20.0041 53.8281 19.824 53.8281 19.6362V14.6798C53.8281 13.7408 53.4536 12.8404 52.787 12.1764C52.1204 11.5125 51.2162 11.1395 50.2735 11.1395H36.0547C35.1119 11.1395 34.2078 11.5125 33.5412 12.1764C32.8745 12.8404 32.5 13.7408 32.5 14.6798V24.5926C32.4974 25.4867 32.8346 26.3487 33.4439 27.0054C34.0532 27.6621 34.8894 28.0649 35.7845 28.1328L34.6684 31.4536C34.6232 31.5901 34.6208 31.737 34.6614 31.8748C34.702 32.0127 34.7838 32.1349 34.8959 32.2254C35.0068 32.3169 35.143 32.3726 35.2865 32.3852C35.43 32.3979 35.5739 32.3668 35.6992 32.2962L42.901 28.1328H50.2735C51.2162 28.1328 52.1204 27.7599 52.787 27.0959C53.4536 26.432 53.8281 25.5315 53.8281 24.5926V22.4684C53.8281 22.2806 53.7532 22.1005 53.6199 21.9677C53.4866 21.8349 53.3058 21.7603 53.1172 21.7603C52.9286 21.7603 52.7478 21.8349 52.6145 21.9677C52.4812 22.1005 52.4063 22.2806 52.4063 22.4684V24.5926C52.4063 25.1559 52.1816 25.6962 51.7816 26.0946C51.3816 26.4929 50.8391 26.7167 50.2735 26.7167H42.7091C42.5849 26.7186 42.463 26.7502 42.3536 26.8088L36.6092 30.1225L37.4766 27.6514C37.5118 27.5449 37.5212 27.4316 37.5039 27.3208C37.4866 27.21 37.4431 27.1049 37.377 27.0141C37.3082 26.9176 37.2162 26.8398 37.1094 26.7878C37.0026 26.7359 36.8844 26.7114 36.7656 26.7167H36.0547C35.489 26.7167 34.9466 26.4929 34.5466 26.0946C34.1466 25.6962 33.9219 25.1559 33.9219 24.5926V14.6798C33.9219 14.1164 34.1466 13.5761 34.5466 13.1778C34.9466 12.7794 35.489 12.5556 36.0547 12.5556H50.2735C50.8391 12.5556 51.3816 12.7794 51.7816 13.1778C52.1816 13.5761 52.4063 14.1164 52.4063 14.6798V19.6362C52.4063 19.824 52.4812 20.0041 52.6145 20.1368C52.7478 20.2696 52.9286 20.3442 53.1172 20.3442Z" fill="white"/>
<path d="M43.1641 35.2134C43.3526 35.2134 43.5334 35.1388 43.6668 35.006C43.8001 34.8732 43.875 34.6931 43.875 34.5054C43.875 34.3176 43.8001 34.1375 43.6668 34.0047C43.5334 33.8719 43.3526 33.7973 43.1641 33.7973H37.4766C37.288 33.7973 37.1072 33.8719 36.9739 34.0047C36.8405 34.1375 36.7656 34.3176 36.7656 34.5054C36.7656 34.6931 36.8405 34.8732 36.9739 35.006C37.1072 35.1388 37.288 35.2134 37.4766 35.2134H43.1641Z" fill="white"/>
<path d="M32.5 37.3376C32.5 37.5254 32.5749 37.7055 32.7082 37.8382C32.8416 37.971 33.0224 38.0456 33.2109 38.0456H43.1641C43.3526 38.0456 43.5334 37.971 43.6668 37.8382C43.8001 37.7055 43.875 37.5254 43.875 37.3376C43.875 37.1498 43.8001 36.9697 43.6668 36.8369C43.5334 36.7041 43.3526 36.6295 43.1641 36.6295H33.2109C33.0224 36.6295 32.8416 36.7041 32.7082 36.8369C32.5749 36.9697 32.5 37.1498 32.5 37.3376Z" fill="white"/>
<path d="M33.2109 40.8778H38.8984C39.087 40.8778 39.2678 40.8032 39.4011 40.6705C39.5345 40.5377 39.6094 40.3576 39.6094 40.1698C39.6094 39.982 39.5345 39.8019 39.4011 39.6691C39.2678 39.5363 39.087 39.4617 38.8984 39.4617H33.2109C33.0224 39.4617 32.8416 39.5363 32.7082 39.6691C32.5749 39.8019 32.5 39.982 32.5 40.1698C32.5 40.3576 32.5749 40.5377 32.7082 40.6705C32.8416 40.8032 33.0224 40.8778 33.2109 40.8778Z" fill="white"/>
<path d="M46.0078 29.549C45.8193 29.549 45.6384 29.6235 45.5051 29.7563C45.3718 29.8891 45.2969 30.0692 45.2969 30.257V41.5859C45.2969 41.7737 45.222 41.9538 45.0886 42.0866C44.9553 42.2194 44.7745 42.294 44.5859 42.294H13.3047C13.1161 42.294 12.9353 42.2194 12.802 42.0866C12.6687 41.9538 12.5938 41.7737 12.5938 41.5859V23.1764C12.5938 22.9887 12.6687 22.8086 12.802 22.6758C12.9353 22.543 13.1161 22.4684 13.3047 22.4684H14.0156C14.2042 22.4684 14.385 22.3938 14.5183 22.261C14.6517 22.1282 14.7266 21.9481 14.7266 21.7603C14.7266 21.5725 14.6517 21.3924 14.5183 21.2597C14.385 21.1269 14.2042 21.0523 14.0156 21.0523H13.3047C12.739 21.0523 12.1965 21.2761 11.7966 21.6744C11.3966 22.0728 11.1719 22.6131 11.1719 23.1764V41.5859C11.1719 42.1493 11.3966 42.6896 11.7966 43.0879C12.1965 43.4863 12.739 43.7101 13.3047 43.7101H21.9284L20.0302 46.5423H18.2812C18.0927 46.5423 17.9119 46.6169 17.7785 46.7497C17.6452 46.8825 17.5703 47.0626 17.5703 47.2504C17.5703 47.4381 17.6452 47.6182 17.7785 47.751C17.9119 47.8838 18.0927 47.9584 18.2812 47.9584H39.6094C39.7979 47.9584 39.9788 48.033 40.1121 48.1658C40.2454 48.2986 40.3203 48.4787 40.3203 48.6665V49.3745H16.8594C16.6708 49.3745 16.49 49.4491 16.3567 49.5819C16.2233 49.7147 16.1484 49.8948 16.1484 50.0826C16.1484 50.2704 16.2233 50.4505 16.3567 50.5832C16.49 50.716 16.6708 50.7906 16.8594 50.7906H41.0312C41.2198 50.7906 41.4006 50.716 41.534 50.5832C41.6673 50.4505 41.7422 50.2704 41.7422 50.0826V48.6665C41.7422 48.1031 41.5175 47.5628 41.1175 47.1645C40.7175 46.7661 40.175 46.5423 39.6094 46.5423H37.8605L35.9623 43.7101H44.5859C45.1516 43.7101 45.6941 43.4863 46.0941 43.0879C46.494 42.6896 46.7188 42.1493 46.7188 41.5859V30.257C46.7188 30.0692 46.6438 29.8891 46.5105 29.7563C46.3772 29.6235 46.1964 29.549 46.0078 29.549ZM36.1471 46.5423H21.7435L23.6417 43.7101H34.2489L36.1471 46.5423Z" fill="white"/>
</svg>
