<svg width="65" height="66" viewBox="0 0 65 66" fill="none" xmlns="http://www.w3.org/2000/svg">
<g clip-path="url(#clip0)">
<path d="M42.0277 43.0455H22.9727C22.6045 43.0455 22.3062 43.3427 22.3062 43.7093C22.3062 44.0759 22.6045 44.3731 22.9727 44.3731H42.0277C42.3959 44.3731 42.6942 44.0759 42.6942 43.7093C42.6942 43.3427 42.3958 43.0455 42.0277 43.0455Z" fill="white"/>
<path d="M42.6942 46.5846C42.6942 46.218 42.3959 45.9208 42.0277 45.9208H22.9727C22.6045 45.9208 22.3062 46.218 22.3062 46.5846C22.3062 46.9512 22.6045 47.2484 22.9727 47.2484H42.0277C42.3958 47.2484 42.6942 46.9512 42.6942 46.5846Z" fill="white"/>
<path d="M25.7603 48.7961C25.3921 48.7961 25.0938 49.0934 25.0938 49.4599C25.0938 49.8265 25.3921 50.1238 25.7603 50.1238H39.2404C39.6086 50.1238 39.9069 49.8265 39.9069 49.4599C39.9069 49.0934 39.6086 48.7961 39.2404 48.7961H25.7603Z" fill="white"/>
<path d="M42.7474 26.3052L46.7519 24.8497C47.1145 24.7179 47.3488 24.3843 47.3488 23.9999C47.3488 23.6155 47.1144 23.2821 46.7519 23.1503L33.5454 18.3501C32.8715 18.1051 32.1292 18.105 31.4552 18.3501L18.2488 23.1503C17.8862 23.282 17.6519 23.6154 17.6519 23.9999C17.6519 24.3844 17.8861 24.7179 18.2487 24.8497L22.2532 26.3052V34.1512C22.2532 34.6687 22.4824 35.1598 22.8336 35.4899C23.1815 35.8167 23.5672 36.1244 23.9846 36.4119C23.9845 36.412 23.9843 36.4122 23.9842 36.4123C23.5358 36.8506 23.2787 37.4583 23.2787 38.0799V38.5266C23.2787 38.7236 23.3408 38.911 23.4489 39.0665L22.8012 40.5536C22.6547 40.8899 22.8097 41.2809 23.1474 41.4267C23.4847 41.5726 23.8774 41.4184 24.0241 41.0819L24.6344 39.6806C24.7216 39.7084 24.8096 39.7323 24.8985 39.7521V41.2464C24.8985 41.613 25.1968 41.9102 25.565 41.9102C25.9332 41.9102 26.2315 41.613 26.2315 41.2464V39.7521C26.3204 39.7323 26.4084 39.7084 26.4955 39.6806L27.106 41.0819C27.2527 41.4187 27.6455 41.5725 27.9826 41.4267C28.3204 41.2809 28.4754 40.8899 28.3289 40.5536L27.6811 39.0665C27.7893 38.911 27.8514 38.7235 27.8514 38.5265V38.1839C29.3127 38.5975 30.8975 38.8144 32.5002 38.8144C35.9031 38.8144 39.7164 37.7917 42.167 35.4897C42.5192 35.1587 42.7472 34.6636 42.7472 34.151C42.7474 33.2636 42.7474 27.2046 42.7474 26.3052ZM31.9121 19.5972C32.2914 19.4593 32.7092 19.4593 33.0884 19.5972L45.2014 24C44.9761 24.0819 33.2965 28.3271 33.0885 28.4027C32.709 28.5406 32.2913 28.5405 31.9121 28.4027L27.2567 26.7105L31.1083 24.8159L31.4553 24.942C31.7923 25.0645 32.1462 25.1257 32.5003 25.1257C32.8545 25.1257 33.2086 25.0645 33.5455 24.942L34.1602 24.7186C34.535 24.5825 34.7868 24.2241 34.7868 23.8268V23.3378C34.7868 22.1055 33.7807 21.0842 32.5439 21.0611C31.9402 21.0501 31.3608 21.281 30.9195 21.7125C30.4712 22.1507 30.2141 22.7585 30.2141 23.3801V23.7752C25.3522 26.1668 25.6625 26.008 25.543 26.0877L19.7993 24L31.9121 19.5972ZM31.5468 23.5621V23.38C31.5468 23.1126 31.6584 22.8501 31.853 22.6598C32.0367 22.4803 32.2705 22.3849 32.5187 22.3883C33.0342 22.3979 33.4536 22.8238 33.4536 23.3377V23.562L33.0884 23.6947C32.7091 23.8326 32.2914 23.8326 31.9122 23.6947L31.5468 23.5621ZM24.8986 32.2723C24.4783 31.995 24.0925 31.694 23.7482 31.3706C23.6452 31.2738 23.5862 31.1379 23.5862 30.9977V26.7898L24.8996 27.2672C24.8981 27.3526 24.8986 26.6927 24.8986 32.2723ZM24.6116 38.2621C24.6116 38.0732 24.5767 37.6932 24.9178 37.3597C25.1128 37.1692 25.3556 37.0842 25.5834 37.0883C26.2677 37.1012 26.5184 37.583 26.5184 38.262C25.7176 38.5531 25.5742 38.6119 24.6116 38.2621ZM24.8986 35.4255C24.5169 35.1737 24.1667 34.9035 23.8509 34.6175C23.7515 34.5274 23.5861 34.4061 23.5861 34.1512V32.971C23.9906 33.278 24.431 33.5611 24.8986 33.8212V35.4255ZM27.3666 36.6377C27.0821 36.2735 26.6898 35.9978 26.2316 35.859V34.4641C27.6364 35.0474 29.2208 35.4369 30.8847 35.5876C31.2519 35.6204 31.5755 35.3517 31.6087 34.9866C31.6422 34.6215 31.372 34.2986 31.0054 34.2655C29.2645 34.1078 27.6262 33.6727 26.2315 33.0168V27.7513L31.4551 29.6499C31.7839 29.7694 32.1418 29.8337 32.5002 29.8337C32.8671 29.8336 33.2254 29.7661 33.5452 29.6499H33.5453L41.4143 26.7898V30.9977C41.4143 31.1379 41.3553 31.2738 41.2523 31.3706C39.577 32.9444 36.9319 33.9996 33.995 34.2655C33.6284 34.2987 33.3583 34.6216 33.3917 34.9867C33.4249 35.3518 33.7488 35.621 34.1158 35.5877C36.9422 35.3317 39.5432 34.3916 41.4143 32.971V34.1513C41.4143 34.2971 41.3491 34.4333 41.2523 34.5242C39.0382 36.6042 35.5531 37.4871 32.5003 37.4871C30.7009 37.4869 28.9309 37.1937 27.3666 36.6377Z" fill="white"/>
<path d="M17.7003 55.7373H47.3001C48.7663 55.7373 49.9593 54.5493 49.9593 53.0889V34.9823C49.9593 34.6157 49.661 34.3185 49.2928 34.3185C48.9246 34.3185 48.6263 34.6157 48.6263 34.9823V53.0889C48.6263 53.8172 48.0314 54.4097 47.3001 54.4097H17.7003C16.969 54.4097 16.374 53.8172 16.374 53.0889V15.8485H48.6263V31.8846C48.6263 32.2512 48.9246 32.5484 49.2928 32.5484C49.661 32.5484 49.9593 32.2512 49.9593 31.8846C49.9593 31.2496 49.9593 13.9739 49.9593 13.0701C49.9593 11.6099 48.7666 10.4217 47.3001 10.4217C46.5003 10.4217 17.9651 10.4217 17.7003 10.4217C16.234 10.4217 15.041 11.6097 15.041 13.0701V53.0888C15.041 54.5493 16.234 55.7373 17.7003 55.7373ZM48.6263 13.0701V14.5209H21.6984V11.7493H47.3001C48.0311 11.7493 48.6263 12.3416 48.6263 13.0701ZM16.374 13.0701C16.374 12.4783 16.7667 11.9762 17.3063 11.8088C17.4308 11.7701 17.5631 11.7493 17.7003 11.7493H20.3654V14.5209H16.374V13.0701Z" fill="white"/>
</g>
<defs>
<clipPath id="clip0">
<rect width="45.5" height="45.3156" fill="white" transform="translate(9.75 10.4217)"/>
</clipPath>
</defs>
</svg>
