<svg width="121" height="120" viewBox="0 0 121 120" fill="none" xmlns="http://www.w3.org/2000/svg">
<circle cx="60.5" cy="60" r="60" fill="#39A1AC"/>
<g clip-path="url(#clip0)">
<path d="M60.2003 87.8208C59.7856 88.2138 59.4055 88.9285 58.9908 88.9285C48.9692 88.9643 38.9476 88.9285 28.926 88.9285C28.8224 88.9285 28.7187 88.8213 28.5459 88.7499C28.5459 67.5595 28.5459 46.3333 28.5459 25C44.5459 25 60.4768 25 76.615 25C76.615 29.038 76.615 32.9687 76.615 37.1496C80.3818 37.1496 83.9066 37.1496 87.5351 37.1496C87.6042 37.7929 87.6733 38.2574 87.6733 38.7219C87.6733 49.1563 87.6733 59.555 87.6733 69.9894C87.6733 71.0257 87.7079 71.9905 86.1183 71.4188C86.1183 60.6985 86.1183 49.9425 86.1183 39.0078C75.9584 39.0078 65.9368 39.0078 55.777 39.0078C55.777 40.8303 55.777 42.6527 55.777 44.6538C55.1895 44.7253 54.7057 44.7968 54.1183 44.8682C54.1183 42.3311 54.1183 39.9012 54.1183 37.2926C61.0297 37.2926 67.9066 37.2926 74.8872 37.2926C74.8872 35.6845 74.8872 34.2909 74.8872 32.7543C60.0621 32.7543 45.2025 32.7543 30.2046 32.7543C30.2046 50.8358 30.2046 68.9531 30.2046 87.2848C40.088 87.2848 49.9368 87.2848 59.8202 87.2848C59.9584 87.4634 60.0621 87.6421 60.2003 87.8208ZM65.0383 26.7152C53.3234 26.7152 41.7813 26.7152 30.2046 26.7152C30.2046 28.1089 30.2046 29.3953 30.2046 30.7889C41.8504 30.7889 53.3925 30.7889 65.0383 30.7889C65.0383 29.3953 65.0383 28.1089 65.0383 26.7152ZM71.7079 30.7175C72.9174 30.7175 73.9196 30.7175 74.8872 30.7175C74.8872 29.2881 74.8872 27.9659 74.8872 26.6795C73.7468 26.6795 72.7446 26.6795 71.7079 26.6795C71.7079 28.1089 71.7079 29.3953 71.7079 30.7175ZM66.8699 30.7175C68.0103 30.7175 68.9779 30.7175 69.9109 30.7175C69.9109 29.3238 69.9109 28.0374 69.9109 26.7152C68.8396 26.7152 67.8375 26.7152 66.8699 26.7152C66.8699 28.1089 66.8699 29.3953 66.8699 30.7175Z" fill="white"/>
<path d="M54.0493 51.765C55.5353 51.2647 55.7426 51.9436 55.7426 53.0514C55.7081 60.4484 55.7426 67.8096 55.7426 75.2066C55.7426 75.7426 55.7081 76.2786 55.7772 76.8147C56.0191 78.4942 57.0212 79.4947 58.6109 79.7449C60.1314 79.995 61.3063 79.2088 61.9629 77.7795C62.2394 77.1363 62.3085 76.4216 62.4813 75.5997C72.4683 75.5997 82.4899 75.5997 92.5461 75.5997C92.9953 78.9587 90.8528 81.4244 87.4316 81.4958C84.5633 81.5673 81.6605 81.4958 78.7923 81.4958C78.1703 81.4958 77.5482 81.4958 76.7189 81.4958C76.7189 83.9972 76.7189 86.3557 76.7189 88.9643C74.8182 88.9643 73.1249 88.9643 71.397 88.9643C68.9089 88.9643 66.4554 88.9286 63.9672 88.9643C62.8269 88.9643 62.585 88.464 62.9651 87.2848C66.9046 87.2848 70.8787 87.2848 74.9564 87.2848C74.9564 85.3551 74.9564 83.5327 74.9564 81.5673C74.3344 81.5316 73.7124 81.4958 73.1249 81.4958C68.7016 81.4958 64.2437 81.4958 59.8204 81.4958C56.0536 81.4601 54.0839 79.4233 54.0839 75.5282C54.0839 68.1312 54.0839 60.77 54.0839 53.373C54.0493 52.837 54.0493 52.3367 54.0493 51.765ZM90.9219 77.172C89.9888 77.172 89.3668 77.172 88.7448 77.172C81.2113 77.172 73.6778 77.2792 66.1443 77.1005C64.1055 77.0648 63.2761 77.851 62.9651 79.7806C71.2588 79.7806 79.4834 79.8163 87.6735 79.7806C89.1595 79.7806 90.2653 79.0302 90.9219 77.172Z" fill="white"/>
<path d="M71.0511 56.8035C74.576 56.8035 77.7898 56.8035 80.9691 56.8035C81.833 60.3412 79.5868 64.9866 75.9928 67.2736C71.9496 69.8465 66.7315 69.3819 63.1375 66.1658C59.5436 62.9497 58.4032 57.6611 60.2693 53.1586C62.1008 48.799 66.5241 45.976 71.0511 46.4763C71.0511 49.8353 71.0511 53.1586 71.0511 56.8035ZM63.4831 64.1647C65.4183 61.9492 67.1807 59.9123 68.9777 57.8755C69.185 57.6254 69.4961 57.268 69.4961 56.9821C69.5306 54.0519 69.5306 51.086 69.5306 48.0128C65.522 48.6918 62.8956 50.7286 61.5824 54.4093C60.3038 57.947 61.0295 61.163 63.4831 64.1647ZM70.0835 59.1262C68.1829 61.306 66.455 63.2714 64.658 65.3082C67.4572 67.2021 70.2218 67.8096 73.4356 66.6304C72.3297 64.1647 71.2585 61.8063 70.0835 59.1262ZM74.9215 65.9514C77.6861 64.129 79.1721 61.7705 79.5177 58.5187C76.8222 58.5187 74.2995 58.5187 71.5695 58.5187C72.7444 61.0916 73.8157 63.45 74.9215 65.9514Z" fill="white"/>
<path d="M59.3019 45.9045C59.0255 45.8688 58.7145 45.7973 58.438 45.8688C57.3667 46.1189 53.0125 51.3004 52.8397 52.4439C52.6324 53.8018 51.9412 54.7666 50.5244 54.9095C49.073 55.0525 48.1054 54.3735 47.6561 52.9084C47.276 51.622 44.4078 49.9067 43.1637 49.8353C40.0536 49.6566 38.4294 51.9436 36.5633 53.8375C36.2868 54.1234 36.2868 54.7666 36.3559 55.2311C36.5287 56.9821 35.5611 58.3757 33.9715 58.5544C32.4855 58.6974 31.2415 57.6253 31.1378 56.0888C30.9996 54.4092 32.1399 53.2658 33.8333 53.0513C34.4898 52.9799 35.2155 52.6583 35.7339 52.2295C36.6669 51.4433 37.5654 50.5857 38.3257 49.6209C38.7058 49.1563 38.9823 48.4416 39.0168 47.7984C39.1205 46.1189 39.9844 44.9397 41.4013 44.7967C42.8181 44.6538 43.9931 45.6544 44.3041 47.2624C44.546 48.5846 47.5525 50.2283 48.8657 49.871C49.5914 49.6923 50.4207 49.7638 51.181 49.6566C51.6302 49.5851 52.1831 49.4779 52.4942 49.192C53.5654 48.2272 54.5676 47.1195 55.6043 46.1189C56.5028 45.2256 57.3322 44.4751 57.2285 42.8671C57.1248 41.402 58.7836 40.33 60.1659 40.5444C61.5136 40.7588 62.5158 42.0452 62.4121 43.4388C62.343 45.1183 61.1335 46.0474 59.3019 45.9045ZM59.7857 41.8665C59.371 42.5098 58.8872 42.9028 58.9218 43.2602C58.9564 43.6532 59.4747 43.9749 59.7857 44.3322C60.1313 43.9749 60.6842 43.6532 60.7879 43.1887C60.857 42.9386 60.2695 42.474 59.7857 41.8665ZM41.7814 46.1546C41.2631 46.7621 40.6756 47.1909 40.7447 47.4411C40.8484 47.8699 41.3667 48.2272 41.6777 48.5846C41.9888 48.263 42.5071 47.9414 42.5762 47.5483C42.6453 47.2267 42.1961 46.7979 41.7814 46.1546ZM50.2825 50.8001C49.7641 51.4076 49.1767 51.8364 49.2458 52.0865C49.3495 52.5153 49.8678 52.8727 50.2134 53.2658C50.5244 52.9084 51.0773 52.6225 51.1464 52.2295C51.181 51.9079 50.6972 51.479 50.2825 50.8001ZM33.8333 57.268C34.2134 56.589 34.6626 56.1602 34.6281 55.8029C34.5935 55.4455 34.0406 55.1239 33.7296 54.8023C33.384 55.1954 32.8657 55.517 32.7965 55.9458C32.762 56.2674 33.3495 56.6605 33.8333 57.268Z" fill="white"/>
<path d="M72.4336 43.6175C78.723 42.8671 84.2867 48.5488 83.9757 55.4455C80.1744 55.4455 76.3386 55.4455 72.4336 55.4455C72.4336 51.5148 72.4336 47.5483 72.4336 43.6175ZM82.2478 53.8732C81.9023 49.2278 78.4811 45.7258 74.0232 45.3328C74.0232 48.1558 74.0232 50.943 74.0232 53.8732C76.8224 53.8732 79.4833 53.8732 82.2478 53.8732Z" fill="white"/>
<path d="M50.0407 79.0302C44.4078 79.0302 38.9132 79.0302 33.3841 79.0302C33.0385 77.8867 33.2113 77.3506 34.4899 77.3506C39.3279 77.3864 44.1659 77.3864 49.0039 77.3506C50.1789 77.3506 50.3517 77.8867 50.0407 79.0302Z" fill="white"/>
<path d="M33.3839 81.3171C38.9131 81.3171 44.4077 81.3171 49.9023 81.3171C50.2824 82.8894 50.2824 82.9252 48.831 82.9252C44.0621 82.9252 39.2932 82.9252 34.5243 82.9609C33.3148 82.9609 32.9692 82.5321 33.3839 81.3171Z" fill="white"/>
<path d="M33.0386 74.6349C33.4533 74.2775 33.8679 73.5986 34.2826 73.5986C39.5008 73.5271 44.7189 73.5628 50.0407 73.5628C50.1098 74.0988 50.1444 74.5277 50.2135 75.0994C44.5116 75.0994 38.9479 75.0994 33.3496 75.0994C33.2459 74.9565 33.1422 74.7778 33.0386 74.6349Z" fill="white"/>
<path d="M34.4899 37.2211C33.937 37.2211 33.5223 37.2211 33.0039 37.2211C33.0039 36.5779 33.0039 36.0419 33.0039 35.4701C34.6627 35.1128 34.6627 35.1128 34.4899 37.2211Z" fill="white"/>
<path d="M46.6537 35.1843C46.6537 35.8275 46.6537 36.292 46.6537 36.828C46.0662 36.828 45.4442 36.828 44.7876 36.828C44.7876 36.3278 44.7876 35.8989 44.7876 35.3272C45.3751 35.2557 45.8934 35.22 46.6537 35.1843Z" fill="white"/>
<path d="M41.3669 65.9514C41.9889 65.9514 42.5073 65.9514 43.6477 65.9514C43.1293 66.6661 42.8874 67.4165 42.4727 67.5237C41.4015 67.8453 41.0905 67.1664 41.3669 65.9514Z" fill="white"/>
<path d="M45.4443 67.5238C45.4443 66.952 45.4443 66.5232 45.4443 65.9872C46.0318 65.9872 46.5847 65.9872 47.1376 65.9872C47.4487 67.5952 47.4487 67.5952 45.4443 67.5238Z" fill="white"/>
<path d="M51.1812 36.828C50.0753 36.828 49.5224 36.828 48.9004 36.828C48.9004 36.292 48.9004 35.8632 48.9004 35.2914C49.3842 35.2557 49.9371 35.0413 50.2136 35.2557C50.5591 35.5058 50.7319 36.0776 51.1812 36.828Z" fill="white"/>
<path d="M36.7358 36.828C36.7358 36.3277 36.7358 35.8632 36.7358 35.2557C37.2542 35.2557 37.8762 35.077 38.1872 35.2914C38.4983 35.5416 38.5328 36.2205 38.7402 36.828C37.9108 36.828 37.3579 36.828 36.7358 36.828Z" fill="white"/>
<path d="M40.4683 36.3277C40.8829 35.9704 41.2976 35.2914 41.7123 35.2914C42.127 35.2914 42.5071 36.0061 42.8873 36.3992C42.7836 36.5421 42.6454 36.6851 42.5417 36.828C41.9888 36.828 41.4704 36.828 40.9175 36.828C40.7447 36.6493 40.6065 36.4707 40.4683 36.3277Z" fill="white"/>
<path d="M33.1074 65.9157C33.9714 65.9157 34.4552 65.9157 35.2154 65.9157C35.1463 66.4517 35.2154 67.1307 34.9735 67.3451C34.6279 67.5952 33.9022 67.6667 33.5567 67.4523C33.2802 67.2736 33.2802 66.5947 33.1074 65.9157Z" fill="white"/>
<path d="M39.4312 66.3802C39.0511 66.7733 38.671 67.488 38.2563 67.488C37.8416 67.488 37.4269 66.8448 37.0122 66.4517C37.1159 66.273 37.2196 66.1301 37.3232 65.9514C37.8761 65.9157 38.3945 65.88 38.9474 65.8442C39.1202 66.0229 39.2584 66.2016 39.4312 66.3802Z" fill="white"/>
<path d="M33.0386 39.4724C33.4878 39.4724 33.9371 39.4724 34.4554 39.4724C34.5591 40.5801 34.9392 41.7593 33.0386 41.402C33.0386 40.7945 33.0386 40.187 33.0386 39.4724Z" fill="white"/>
<path d="M33.0039 45.44C33.0039 44.8682 33.0039 44.2965 33.0039 43.7247C33.1421 43.6175 33.2804 43.4746 33.4186 43.3674C33.7987 43.7604 34.4899 44.1893 34.4899 44.5823C34.4899 44.9754 33.7987 45.3685 33.4186 45.7616C33.2804 45.6901 33.1421 45.5472 33.0039 45.44Z" fill="white"/>
</g>
<defs>
<clipPath id="clip0">
<rect width="64" height="64" fill="white" transform="translate(28.5459 25)"/>
</clipPath>
</defs>
</svg>
