<svg width="121" height="120" viewBox="0 0 121 120" fill="none" xmlns="http://www.w3.org/2000/svg">
<circle cx="60.5" cy="60" r="60" fill="#A2D064"/>
<g clip-path="url(#clip0)">
<path d="M74.4075 32.7345C74.8979 32.8444 75.3967 32.9289 75.8786 33.0727C78.0683 33.7321 79.3703 35.2539 79.9452 37.4098C80.0805 37.934 80.0974 38.5004 80.1058 39.0415C80.1143 46.6336 80.1143 54.2256 80.1058 61.8177C80.1058 63.9313 79.3449 65.6898 77.6033 66.958C76.8255 67.5245 75.9378 67.9049 74.9571 67.9725C74.1539 68.0317 73.3507 68.0571 72.556 68.0571C64.4567 68.0655 56.3573 68.0655 48.258 68.0486C47.8691 68.0486 47.6155 68.167 47.3618 68.4629C45.0707 71.143 42.7457 73.8061 40.4546 76.4861C39.3132 77.8219 37.7914 77.6951 36.946 76.9511C36.3964 76.4692 36.1259 75.8521 36.1259 75.125C36.1259 72.9607 36.1259 70.7879 36.1259 68.6235C36.1259 68.0655 36.1259 68.074 35.5679 68.0655C34.5703 68.0571 33.5811 68.0825 32.6004 67.7612C31.2223 67.2962 30.174 66.4507 29.3962 65.2333C28.872 64.4217 28.6691 63.5086 28.5 62.5786C28.5 54.4877 28.5 46.4053 28.5 38.3144C28.5507 38.0101 28.5845 37.7057 28.6691 37.4098C29.2778 35.1356 30.6812 33.6222 32.9724 32.9966C33.3951 32.8782 33.8263 32.819 34.249 32.7345C47.6324 32.7345 61.0242 32.7345 74.4075 32.7345ZM39.2709 72.9268C39.4654 72.7239 39.5838 72.6056 39.6937 72.4788C41.6382 70.2383 43.5827 67.9979 45.5103 65.7406C46.0007 65.1657 46.5671 64.8951 47.3449 64.8951C56.1122 64.912 64.8709 64.9036 73.6382 64.9036C73.8665 64.9036 74.0863 64.8951 74.3145 64.8782C75.8448 64.7683 76.91 63.6777 76.91 62.1474C76.9185 54.344 76.9185 46.5406 76.9185 38.7287C76.9185 38.1031 76.7579 37.5366 76.369 37.0378C75.7264 36.2093 74.8556 35.9387 73.8411 35.9387C64.3975 35.9472 54.9624 35.9387 45.5188 35.9387C41.9087 35.9387 38.3071 35.9387 34.6971 35.9387C32.8202 35.9387 31.7042 37.0547 31.6958 38.9316C31.6958 40.1575 31.6958 41.3834 31.6958 42.6093C31.6958 49.0515 31.6958 55.4854 31.6958 61.9276C31.6958 63.7622 32.8118 64.8698 34.6464 64.8698C35.6017 64.8698 36.5655 64.8529 37.5209 64.8782C37.8168 64.8867 38.138 64.9628 38.4086 65.098C39.1018 65.4362 39.2794 66.0703 39.2794 66.7889C39.2709 68.8011 39.2709 70.7963 39.2709 72.9268Z" fill="white"/>
<path d="M82.3546 87.2656C81.1372 87.0627 80.5031 86.1073 79.7845 85.2703C77.6878 82.8608 75.608 80.4428 73.5028 78.0418C73.3591 77.8812 73.0716 77.7797 72.8518 77.7797C65.3189 77.7628 57.7776 77.7628 50.2447 77.7628C49.5683 77.7628 49.0103 77.5852 48.6214 76.9934C48.0381 76.0973 48.5961 74.8122 49.6529 74.6347C49.8981 74.5924 50.1602 74.5924 50.4138 74.5924C58.0819 74.5924 65.7417 74.6008 73.4098 74.5755C74.3483 74.5755 75.0331 74.8545 75.6418 75.5815C77.5271 77.822 79.4547 80.0201 81.3654 82.2352C81.45 82.3282 81.4838 82.4635 81.543 82.5734C81.6022 82.5395 81.6613 82.4973 81.7205 82.4635C81.729 82.3197 81.7459 82.176 81.7459 82.0323C81.7459 80.1554 81.7797 78.287 81.7374 76.4101C81.7036 75.2603 82.5744 74.5247 83.5636 74.567C84.688 74.6177 85.8209 74.6008 86.9369 74.5247C88.2051 74.4317 89.1858 73.3834 89.2957 72.1068C89.3126 71.9123 89.3211 71.7094 89.3211 71.515C89.3211 63.8891 89.3041 56.2716 89.338 48.6458C89.3464 46.9041 88.1713 45.6529 86.5311 45.6022C85.6349 45.5768 84.967 44.7736 85.0347 43.8944C85.1023 43.032 85.897 42.4233 86.8016 42.474C88.687 42.5755 90.2003 43.3702 91.3332 44.8751C91.8828 45.6022 92.2294 46.4307 92.3816 47.3269C92.4154 47.5298 92.4661 47.7327 92.5084 47.944C92.5084 56.0349 92.5084 64.1173 92.5084 72.2082C92.4661 72.4027 92.4238 72.5887 92.39 72.7831C92.0011 74.9644 90.7583 76.4693 88.7293 77.3232C87.6555 77.7797 86.5057 77.7712 85.3644 77.7374C85.0008 77.729 84.8825 77.822 84.8825 78.2109C84.8994 80.3329 84.8825 82.4635 84.8994 84.594C84.8994 85.3971 84.7134 86.1242 84.0539 86.6146C83.6566 86.9105 83.1578 87.0542 82.7012 87.2656C82.5829 87.2656 82.4645 87.2656 82.3546 87.2656Z" fill="white"/>
<path d="M60.6774 52.8645C59.6291 52.8645 58.809 52.036 58.8174 50.9876C58.8259 49.9308 59.646 49.1192 60.6943 49.1192C61.7427 49.1192 62.5796 49.9477 62.5796 50.9792C62.5796 52.0444 61.7511 52.8645 60.6774 52.8645Z" fill="white"/>
<path d="M54.3113 52.8645C53.2545 52.8645 52.426 52.0529 52.4175 51.0045C52.4091 49.9477 53.2545 49.1107 54.3198 49.1107C55.3597 49.1107 56.1798 49.9393 56.1798 50.9961C56.1798 52.0529 55.3681 52.8645 54.3113 52.8645Z" fill="white"/>
<path d="M47.9029 52.8645C46.8461 52.8645 46.0176 52.0275 46.0176 50.9538C46.0176 49.9562 46.8799 49.1192 47.8945 49.1107C48.9428 49.1107 49.7967 49.9477 49.7967 50.9622C49.7967 52.0444 48.9766 52.8645 47.9029 52.8645Z" fill="white"/>
</g>
<defs>
<clipPath id="clip0">
<rect width="64" height="54.531" fill="white" transform="translate(28.5 32.7345)"/>
</clipPath>
</defs>
</svg>
